<svg id="wave" style="transform:rotate(0deg); transition: 0.3s" viewBox="0 0 1440 490" version="1.1" xmlns="http://www.w3.org/2000/svg"><defs><linearGradient id="sw-gradient-0" x1="0" x2="0" y1="1" y2="0"><stop stop-color="rgba(243, 106, 62, 1)" offset="0%"></stop><stop stop-color="rgba(255, 179, 11, 1)" offset="100%"></stop></linearGradient></defs><path style="transform:translate(0, 0px); opacity:1" fill="url(#sw-gradient-0)" d="M0,49L60,106.2C120,163,240,278,360,343C480,408,600,425,720,359.3C840,294,960,147,1080,81.7C1200,16,1320,33,1440,40.8C1560,49,1680,49,1800,73.5C1920,98,2040,147,2160,138.8C2280,131,2400,65,2520,89.8C2640,114,2760,229,2880,302.2C3000,376,3120,408,3240,383.8C3360,359,3480,278,3600,212.3C3720,147,3840,98,3960,114.3C4080,131,4200,212,4320,220.5C4440,229,4560,163,4680,130.7C4800,98,4920,98,5040,122.5C5160,147,5280,196,5400,245C5520,294,5640,343,5760,318.5C5880,294,6000,196,6120,171.5C6240,147,6360,196,6480,245C6600,294,6720,343,6840,318.5C6960,294,7080,196,7200,138.8C7320,82,7440,65,7560,65.3C7680,65,7800,82,7920,147C8040,212,8160,327,8280,367.5C8400,408,8520,376,8580,359.3L8640,343L8640,490L8580,490C8520,490,8400,490,8280,490C8160,490,8040,490,7920,490C7800,490,7680,490,7560,490C7440,490,7320,490,7200,490C7080,490,6960,490,6840,490C6720,490,6600,490,6480,490C6360,490,6240,490,6120,490C6000,490,5880,490,5760,490C5640,490,5520,490,5400,490C5280,490,5160,490,5040,490C4920,490,4800,490,4680,490C4560,490,4440,490,4320,490C4200,490,4080,490,3960,490C3840,490,3720,490,3600,490C3480,490,3360,490,3240,490C3120,490,3000,490,2880,490C2760,490,2640,490,2520,490C2400,490,2280,490,2160,490C2040,490,1920,490,1800,490C1680,490,1560,490,1440,490C1320,490,1200,490,1080,490C960,490,840,490,720,490C600,490,480,490,360,490C240,490,120,490,60,490L0,490Z"></path><defs><linearGradient id="sw-gradient-1" x1="0" x2="0" y1="1" y2="0"><stop stop-color="rgba(243, 106, 62, 1)" offset="0%"></stop><stop stop-color="rgba(255, 179, 11, 1)" offset="100%"></stop></linearGradient></defs><path style="transform:translate(0, 50px); opacity:0.9" fill="url(#sw-gradient-1)" d="M0,147L60,196C120,245,240,343,360,326.7C480,310,600,180,720,147C840,114,960,180,1080,171.5C1200,163,1320,82,1440,57.2C1560,33,1680,65,1800,138.8C1920,212,2040,327,2160,383.8C2280,441,2400,441,2520,432.8C2640,425,2760,408,2880,351.2C3000,294,3120,196,3240,138.8C3360,82,3480,65,3600,114.3C3720,163,3840,278,3960,277.7C4080,278,4200,163,4320,114.3C4440,65,4560,82,4680,114.3C4800,147,4920,196,5040,212.3C5160,229,5280,212,5400,236.8C5520,261,5640,327,5760,294C5880,261,6000,131,6120,130.7C6240,131,6360,261,6480,326.7C6600,392,6720,392,6840,400.2C6960,408,7080,425,7200,367.5C7320,310,7440,180,7560,106.2C7680,33,7800,16,7920,32.7C8040,49,8160,98,8280,171.5C8400,245,8520,343,8580,392L8640,441L8640,490L8580,490C8520,490,8400,490,8280,490C8160,490,8040,490,7920,490C7800,490,7680,490,7560,490C7440,490,7320,490,7200,490C7080,490,6960,490,6840,490C6720,490,6600,490,6480,490C6360,490,6240,490,6120,490C6000,490,5880,490,5760,490C5640,490,5520,490,5400,490C5280,490,5160,490,5040,490C4920,490,4800,490,4680,490C4560,490,4440,490,4320,490C4200,490,4080,490,3960,490C3840,490,3720,490,3600,490C3480,490,3360,490,3240,490C3120,490,3000,490,2880,490C2760,490,2640,490,2520,490C2400,490,2280,490,2160,490C2040,490,1920,490,1800,490C1680,490,1560,490,1440,490C1320,490,1200,490,1080,490C960,490,840,490,720,490C600,490,480,490,360,490C240,490,120,490,60,490L0,490Z"></path><defs><linearGradient id="sw-gradient-2" x1="0" x2="0" y1="1" y2="0"><stop stop-color="rgba(243, 106, 62, 1)" offset="0%"></stop><stop stop-color="rgba(255, 179, 11, 1)" offset="100%"></stop></linearGradient></defs><path style="transform:translate(0, 100px); opacity:0.8" fill="url(#sw-gradient-2)" d="M0,392L60,351.2C120,310,240,229,360,236.8C480,245,600,343,720,359.3C840,376,960,310,1080,310.3C1200,310,1320,376,1440,334.8C1560,294,1680,147,1800,147C1920,147,2040,294,2160,343C2280,392,2400,343,2520,277.7C2640,212,2760,131,2880,98C3000,65,3120,82,3240,114.3C3360,147,3480,196,3600,245C3720,294,3840,343,3960,343C4080,343,4200,294,4320,294C4440,294,4560,343,4680,351.2C4800,359,4920,327,5040,302.2C5160,278,5280,261,5400,261.3C5520,261,5640,278,5760,236.8C5880,196,6000,98,6120,73.5C6240,49,6360,98,6480,122.5C6600,147,6720,147,6840,155.2C6960,163,7080,180,7200,212.3C7320,245,7440,294,7560,269.5C7680,245,7800,147,7920,89.8C8040,33,8160,16,8280,57.2C8400,98,8520,196,8580,245L8640,294L8640,490L8580,490C8520,490,8400,490,8280,490C8160,490,8040,490,7920,490C7800,490,7680,490,7560,490C7440,490,7320,490,7200,490C7080,490,6960,490,6840,490C6720,490,6600,490,6480,490C6360,490,6240,490,6120,490C6000,490,5880,490,5760,490C5640,490,5520,490,5400,490C5280,490,5160,490,5040,490C4920,490,4800,490,4680,490C4560,490,4440,490,4320,490C4200,490,4080,490,3960,490C3840,490,3720,490,3600,490C3480,490,3360,490,3240,490C3120,490,3000,490,2880,490C2760,490,2640,490,2520,490C2400,490,2280,490,2160,490C2040,490,1920,490,1800,490C1680,490,1560,490,1440,490C1320,490,1200,490,1080,490C960,490,840,490,720,490C600,490,480,490,360,490C240,490,120,490,60,490L0,490Z"></path></svg>